<svg id="stacked-peaks-haikei_1_" data-name="stacked-peaks-haikei (1)" xmlns="http://www.w3.org/2000/svg" width="1943" height="1082" viewBox="0 0 1943 1082">
  <path id="Path_2" data-name="Path 2" d="M0,164l323.833,54L647.667,110,971.5,186l323.833-44,323.833-22L1943,164V0H0Z" fill="#9bcf5f"/>
  <path id="Path_3" data-name="Path 3" d="M0,349l323.833,64,323.833,44L971.5,565l323.833-184,323.833,108L1943,425V107L1619.167,63,1295.333,85,971.5,129,647.667,53,323.833,161,0,107Z" transform="translate(0 53)" fill="#7bc769"/>
  <path id="Path_4" data-name="Path 4" d="M0,407l323.833,54H647.667L971.5,603l323.833-76,323.833,130L1943,549V275l-323.833,64L1295.333,231,971.5,415,647.667,307,323.833,263,0,199Z" transform="translate(0 199)" fill="#5bbd73"/>
  <path id="Path_5" data-name="Path 5" d="M0,781H1943V443L1619.167,551,1295.333,421,971.5,497,647.667,355H323.833L0,301Z" transform="translate(0 301)" fill="#39b27b"/>
</svg>